<?xml version="1.0" encoding="utf-8"?>
<!-- Generator: Adobe Illustrator 21.1.0, SVG Export Plug-In . SVG Version: 6.00 Build 0)  -->
<svg version="1.1" id="Layer_1" xmlns="http://www.w3.org/2000/svg" xmlns:xlink="http://www.w3.org/1999/xlink" x="0px" y="0px"
	 viewBox="0 0 800 200" style="enable-background:new 0 0 800 200;" xml:space="preserve">
<style type="text/css">
	.st0{fill:#FFFFFF;}
</style>
<g>
	<path class="st0" d="M273.6,57.8c-23.3,0-42.1,18.9-42.1,42.1s18.9,42.1,42.1,42.1s42.1-18.9,42.1-42.1S296.8,57.8,273.6,57.8z
		 M273.6,132c-17.7,0-32-14.3-32-32s14.3-32,32-32s32,14.3,32,32S291.3,132,273.6,132z"/>
	<path class="st0" d="M558.5,57.9V100c0,17.7-14.4,32.1-32.1,32.1c-17.7,0-32.1-14.4-32.1-32.1V57.9h-10.1V100
		c0,23.3,18.9,42.1,42.1,42.1c23.3,0,42.1-18.9,42.1-42.1V57.9H558.5z"/>
	<path class="st0" d="M41.9,57.9c8.2,0,16.1,4.2,20.5,11.8l-8.7,5c-3.7-6.5-12-8.7-18.5-4.9c-3.1,1.8-5.4,4.7-6.3,8.2
		c-0.8,3.1-0.5,6.3,0.8,9.1l30.9,17.8c0.8,0.4,1.4,1.1,1.8,1.8c6.5,11.3,2.6,25.7-8.6,32.2c-5.5,3.1-11.8,4-17.9,2.4
		c-6.1-1.6-11.2-5.5-14.3-11l8.7-5c1.8,3.1,4.7,5.4,8.2,6.3c3.5,0.9,7.1,0.5,10.2-1.3c3.1-1.8,5.4-4.7,6.3-8.2
		c0.8-3.1,0.5-6.3-0.8-9.1L23.3,95.1c-0.8-0.4-1.4-1.1-1.8-1.8C15,82,18.8,67.5,30.1,61C33.8,58.9,37.9,57.9,41.9,57.9z"/>
	<path class="st0" d="M758.1,142.1c-8.2,0-16.1-4.2-20.5-11.8l8.7-5c3.7,6.5,12,8.7,18.5,4.9c3.1-1.8,5.4-4.7,6.3-8.2
		c0.8-3.1,0.5-6.3-0.8-9.1l-32-18.5l-0.7-1.2C731.2,82,735,67.5,746.3,61c5.5-3.1,11.8-4,17.9-2.4c6.1,1.6,11.2,5.5,14.3,11l-8.7,5
		c-1.8-3.1-4.7-5.4-8.2-6.3c-3.5-0.9-7.1-0.5-10.2,1.3c-3.1,1.8-5.4,4.7-6.3,8.2c-0.8,3.1-0.5,6.3,0.8,9.1l32,18.5l0.7,1.2
		c6.5,11.3,2.6,25.7-8.6,32.2C766.2,141.1,762.1,142.1,758.1,142.1z"/>
</g>
</svg>
